P3
7 7
255
248 252 248  248 252 248  152 152 152  152 152 152  152 152 152  248 252 248
248 252 248
248 252 248  152 152 152  248 0 0  248 0 0  184 0 0  152 152 152
248 252 248
152 152 152  248 0 0  248 148 144  248 148 144  248 0 0  184 0 0
152 152 152
152 152 152  248 0 0  248 148 144  248 148 144  248 0 0  248 0 0
152 152 152
152 152 152  184 0 0  248 0 0  248 0 0  248 0 0  184 0 0
152 152 152
248 252 248  152 152 152  184 0 0  248 0 0  184 0 0  152 152 152
248 252 248
248 252 248  248 252 248  152 152 152  152 152 152  152 152 152  248 252 248
248 252 248
