P3
7 7
255
248 252 248  248 252 248  152 152 152  152 152 152  152 152 152  248 252 248
248 252 248
248 252 248  152 152 152  200 204 0  200 204 0  160 160 0  152 152 152
248 252 248
152 152 152  200 204 0  248 252 0  248 252 0  200 204 0  160 160 0
152 152 152
152 152 152  200 204 0  248 252 0  248 252 0  200 204 0  200 204 0
152 152 152
152 152 152  160 160 0  200 204 0  200 204 0  200 204 0  160 160 0
152 152 152
248 252 248  152 152 152  160 160 0  200 204 0  160 160 0  152 152 152
248 252 248
248 252 248  248 252 248  152 152 152  152 152 152  152 152 152  248 252 248
248 252 248
