P3
7 7
255
248 252 248  248 252 248  152 152 152  152 152 152  152 152 152  248 252 248
248 252 248
248 252 248  152 152 152  0 212 0  0 212 0  0 140 0  152 152 152
248 252 248
152 152 152  0 212 0  0 252 0  0 252 0  0 212 0  0 140 0
152 152 152
152 152 152  0 212 0  0 252 0  0 252 0  0 212 0  0 212 0
152 152 152
152 152 152  0 140 0  0 212 0  0 212 0  0 212 0  0 140 0
152 152 152
248 252 248  152 152 152  0 140 0  0 212 0  0 140 0  152 152 152
248 252 248
248 252 248  248 252 248  152 152 152  152 152 152  152 152 152  248 252 248
248 252 248
