P3
7 7
255
248 252 248  248 252 248  152 152 152  152 152 152  152 152 152  248 252 248
248 252 248
248 252 248  152 152 152  48 48 248  48 48 248  0 0 184  152 152 152
248 252 248
152 152 152  48 48 248  120 124 248  120 124 248  48 48 248  0 0 184
152 152 152
152 152 152  48 48 248  120 124 248  120 124 248  48 48 248  48 48 248
152 152 152
152 152 152  0 0 184  48 48 248  48 48 248  48 48 248  0 0 184
152 152 152
248 252 248  152 152 152  0 0 184  48 48 248  0 0 184  152 152 152
248 252 248
248 252 248  248 252 248  152 152 152  152 152 152  152 152 152  248 252 248
248 252 248
