#define colsel_width 10
#define colsel_height 9
static unsigned char colsel_bits[] = {
   0xff, 0x01, 0x11, 0x01, 0xff, 0x01, 0x11, 0x01, 0x11, 0x01, 0x01, 0x00,
   0xe1, 0x03, 0xcf, 0x01, 0x80, 0x00};
