P3
9 9
255
248 252 248  248 252 248  248 252 248  248 252 248  152 152 152  248 252 248
248 252 248  248 252 248  248 252 248
248 252 248  248 252 248  248 252 248  152 152 152  248 0 248  152 152 152
248 252 248  248 252 248  248 252 248
248 252 248  248 252 248  152 152 152  248 0 248  248 92 248  248 0 248
152 152 152  248 252 248  248 252 248
248 252 248  152 152 152  248 0 248  248 92 248  248 0 248  248 0 248
248 0 248  152 152 152  248 252 248
152 152 152  248 0 248  248 92 248  248 0 248  248 0 248  248 0 248
200 0 200  200 0 200  152 152 152
248 252 248  152 152 152  248 0 248  248 0 248  248 0 248  200 0 200
200 0 200  152 152 152  248 252 248
248 252 248  248 252 248  152 152 152  248 0 248  200 0 200  200 0 200
152 152 152  248 252 248  248 252 248
248 252 248  248 252 248  248 252 248  152 152 152  200 0 200  152 152 152
248 252 248  248 252 248  248 252 248
248 252 248  248 252 248  248 252 248  248 252 248  152 152 152  248 252 248
248 252 248  248 252 248  248 252 248
