P3
9 9
255
248 252 248  248 252 248  248 252 248  248 252 248  152 152 152  248 252 248
248 252 248  248 252 248  248 252 248
248 252 248  248 252 248  248 252 248  152 152 152  0 0 0  152 152 152
248 252 248  248 252 248  248 252 248
248 252 248  248 252 248  152 152 152  0 0 0  112 116 112  0 0 0
152 152 152  248 252 248  248 252 248
248 252 248  152 152 152  0 0 0  112 116 112  0 0 0  0 0 0
0 0 0  152 152 152  248 252 248
152 152 152  0 0 0  112 116 112  0 0 0  0 0 0  0 0 0
40 40 40  40 40 40  152 152 152
248 252 248  152 152 152  0 0 0  0 0 0  0 0 0  40 40 40
40 40 40  152 152 152  248 252 248
248 252 248  248 252 248  152 152 152  0 0 0  40 40 40  40 40 40
152 152 152  248 252 248  248 252 248
248 252 248  248 252 248  248 252 248  152 152 152  40 40 40  152 152 152
248 252 248  248 252 248  248 252 248
248 252 248  248 252 248  248 252 248  248 252 248  152 152 152  248 252 248
248 252 248  248 252 248  248 252 248
