P3
9 9
255
248 252 248  248 252 248  248 252 248  248 252 248  152 152 152  248 252 248
248 252 248  248 252 248  248 252 248
248 252 248  248 252 248  248 252 248  152 152 152  0 208 208  152 152 152
248 252 248  248 252 248  248 252 248
248 252 248  248 252 248  152 152 152  0 208 208  0 252 248  0 208 208
152 152 152  248 252 248  248 252 248
248 252 248  152 152 152  0 208 208  0 252 248  0 208 208  0 208 208
0 208 208  152 152 152  248 252 248
152 152 152  0 208 208  0 252 248  0 208 208  0 208 208  0 208 208
0 152 152  0 152 152  152 152 152
248 252 248  152 152 152  0 208 208  0 208 208  0 208 208  0 152 152
0 152 152  152 152 152  248 252 248
248 252 248  248 252 248  152 152 152  0 208 208  0 152 152  0 152 152
152 152 152  248 252 248  248 252 248
248 252 248  248 252 248  248 252 248  152 152 152  0 152 152  152 152 152
248 252 248  248 252 248  248 252 248
248 252 248  248 252 248  248 252 248  248 252 248  152 152 152  248 252 248
248 252 248  248 252 248  248 252 248
