P3
9 9
255
248 252 248  248 252 248  248 252 248  248 252 248  152 152 152  248 252 248
248 252 248  248 252 248  248 252 248
248 252 248  248 252 248  248 252 248  152 152 152  224 224 0  152 152 152
248 252 248  248 252 248  248 252 248
248 252 248  248 252 248  152 152 152  224 224 0  248 252 0  224 224 0
152 152 152  248 252 248  248 252 248
248 252 248  152 152 152  224 224 0  248 252 0  224 224 0  224 224 0
224 224 0  152 152 152  248 252 248
152 152 152  224 224 0  248 252 0  224 224 0  224 224 0  224 224 0
184 184 0  184 184 0  152 152 152
248 252 248  248 252 0  224 224 0  224 224 0  224 224 0  184 184 0
184 184 0  152 152 152  248 252 248
248 252 248  248 252 248  152 152 152  224 224 0  184 184 0  184 184 0
152 152 152  248 252 248  248 252 248
248 252 248  248 252 248  248 252 248  152 152 152  184 184 0  152 152 152
248 252 248  248 252 248  248 252 248
248 252 248  248 252 248  248 252 248  248 252 248  152 152 152  248 252 248
248 252 248  248 252 248  248 252 248
