P3
5 5
255
248 252 248  168 176 176  144 140 136  168 176 176  248 252 248
168 176 176  248 0 0  248 0 0  200 0 0  168 176 176
144 140 136  248 0 0  200 0 0  152 0 0  144 140 136
168 176 176  200 0 0  152 0 0  152 0 0  168 176 176
248 252 248  168 176 176  144 140 136  168 176 176  248 252 248
