P3
5 5
255
184 192 192  152 152 152  152 152 152  152 152 152  184 192 192
152 152 152  0 0 248  0 0 248  0 0 192  152 152 152
152 152 152  0 0 248  0 0 192  0 0 144  152 152 152
152 152 152  0 0 192  0 0 144  0 0 144  152 152 152
184 192 192  152 152 152  152 152 152  152 152 152  184 192 192
