P3
5 5
255
248 252 248  168 176 176  144 140 136  168 176 176  248 252 248
168 176 176  248 92 248  248 92 248  248 0 248  168 176 176
144 140 136  248 92 248  248 0 248  200 0 200  144 140 136
168 176 176  248 0 248  200 0 200  200 0 200  168 176 176
248 252 248  168 176 176  144 140 136  168 176 176  248 252 248
