P3
5 5
255
184 192 192  144 140 136  144 140 136  144 140 136  184 192 192
144 140 136  0 252 248  0 252 248  0 204 200  144 140 136
144 140 136  0 252 248  0 204 200  0 156 152  144 140 136
144 140 136  0 204 200  0 156 152  0 156 152  144 140 136
184 192 192  144 140 136  144 140 136  144 140 136  184 192 192
