P3
5 5
255
184 192 192  144 176 136  144 176 136  144 176 136  184 192 192
144 176 136  0 252 0  0 252 0  0 212 0  144 176 136
144 176 136  0 252 0  0 212 0  0 140 0  144 176 136
144 176 136  0 212 0  0 140 0  0 140 0  144 176 136
184 192 192  144 176 136  144 176 136  144 176 136  184 192 192
