P3
5 5
255
184 192 192  144 140 136  144 140 136  144 140 136  184 192 192
144 140 136  248 252 0  248 252 0  200 204 0  144 140 136
144 140 136  248 252 0  200 204 0  152 156 0  144 140 136
144 140 136  200 204 0  152 156 0  152 156 0  144 140 136
184 192 192  144 140 136  144 140 136  144 140 136  184 192 192
