P3
5 5
255
184 192 192  152 152 152  152 152 152  152 152 152  184 192 192
152 152 152  248 252 248  248 252 248  168 172 176  152 152 152
152 152 152  248 252 248  168 172 176  0 0 0  152 152 152
152 152 152  168 172 176  0 0 0  0 0 0  152 152 152
184 192 192  152 152 152  152 152 152  152 152 152  184 192 192
