#define hatch_width 5
#define hatch_height 5
static unsigned char hatch_bits[] = {
   0x18, 0x0c, 0x06, 0x03, 0x11};
