/* XPM */
static char *noname[] = {
/* width height ncolors chars_per_pixel */
"32 32 149 2",
/* colors */
"   c #000000",
" . c #333332",
" X c #2A2929",
" o c #242323",
" O c #232322",
" + c #212120",
" @ c #191918",
" # c #151514",
" $ c #424243",
" % c #3F4040",
" & c #3C3C3D",
" * c #222220",
" = c #323233",
" - c #303031",
" ; c #272828",
" : c #262627",
" > c #242425",
" , c #202021",
" < c #1B1C1C",
" 1 c #141415",
" 2 c #494949",
" 3 c #474747",
" 4 c #0F1010",
" 5 c #434343",
" 6 c #414141",
" 7 c #403F40",
" 8 c #0A0A0B",
" 9 c #3F3F3F",
" 0 c #3E3D3E",
" q c #3D3D3D",
" w c #3B3B3B",
" e c #393939",
" r c #373737",
" t c #353535",
" y c #343334",
" u c #333333",
" i c #313131",
" p c #2F2F2F",
" a c #2E2D2E",
" s c #2D2D2D",
" d c #2C2B2C",
" f c #2B2B2B",
" g c #292929",
" h c #282728",
" j c #272727",
" k c #252525",
" l c #232323",
" z c #222322",
" x c #212321",
" c c #212121",
" v c #1F1F1F",
" b c #1E1F1E",
" n c #1E1D1E",
" m c #1D1D1D",
" M c #1B1B1B",
" N c #1A1B1A",
" B c #191919",
" V c #171717",
" C c #161716",
" Z c #151515",
" A c #141314",
" S c #131313",
" D c #121312",
" F c #111111",
" G c #0F110F",
" H c #0F0F0F",
" J c #0E0F0E",
" K c #0D0D0D",
" L c #090909",
" P c #3D3C3C",
" I c #070707",
" U c #3B3A3A",
" Y c #3A3A39",
" T c #282824",
" R c #383837",
" E c #363635",
" W c #333232",
" Q c #30302F",
" ! c #2B2A2A",
" ~ c #2A2A29",
" ^ c #282827",
" / c #252424",
" ( c #1F1E1E",
" ) c #1A1A19",
" _ c #242626",
" ` c #454546",
" ' c #39393A",
" ] c #363737",
" [ c #323333",
" { c #313132",
" } c #2E2F2F",
" | c #282929",
".  c #272728",
".. c #171515",
".X c #242525",
".o c #222323",
".O c #1D1D1E",
".+ c #161717",
".@ c #131314",
".# c #464646",
".$ c #444444",
".% c #0E0F0F",
".& c #424242",
".* c #404040",
".= c #09090A",
".- c #3E3E3E",
".; c #3D3C3D",
".: c #3C3C3C",
".> c #3B3C3B",
"., c #3A3A3A",
".< c #383838",
".1 c #363636",
".2 c #353435",
".3 c #343434",
".4 c #323232",
".5 c #313031",
".6 c #303030",
".7 c #2E2E2E",
".8 c #2C2C2C",
".9 c #2B2C2B",
".0 c #2A2A2A",
".q c #282828",
".w c #272827",
".e c #262626",
".r c #252425",
".t c #242424",
".y c #232423",
".u c #222222",
".i c #1F221F",
".p c #202020",
".a c #1F201F",
".s c #1E1E1E",
".d c #1C1C1C",
".f c #1B1A1B",
".g c #1A1A1A",
".h c #191819",
".j c #181818",
".k c #171817",
".l c #161616",
".z c #151415",
".x c #141414",
".c c #121212",
".v c #101010",
".b c #0E0E0E",
".n c #0D0C0D",
".m c #0C0C0C",
".M c #0A0A0A",
".N c #080808",
".B c None",
/* pixels */
"                               6.7                              ",
"                              .$.7                              ",
"                             ].$.7                              ",
"                            .-.$ a                              ",
"                             9 5 s                              ",
"                          .< 9 6 d                              ",
"                          .,.- % f                              ",
"                        .5.,.;.-.0       P.#                    ",
"                         t e w &.0       5 w                    ",
"                      .8 t.< e w ~    .,.$.-                    ",
"                      .6.3.1.< Y g   u 9 5.&                    ",
"                     _.6 =.3.1.<.q   w.*.&.*                    ",
"                    .8 p i u t u  .1.:.-.*.*                    ",
"                  .w f s p i i T.6.< w q 9.,                    ",
"                   h.0.8.7 p.8 f.3 r e w q q      .<            ",
"                .t.e.q.0.8 f :.6.3.1.<.,.> w    .:.*            ",
"                 l k j g.q   s.6.4.3.1.< e r  ., 6.*            ",
"              .p c.y k.e   X s p i u.2.1 .  .< 0.* 9            ",
"            .s.s.p.u.y  .e g f s p i.4 Q.0.1., q 9 q            ",
"             <.d.s.p x l.e.q.0.8.7.7 s g u r e w q.:            ",
"          .g B M m b c.o k.e.q.0 !.p.0.5.3.1 R ' w U       e u  ",
"         N.l V B m.O v c l k j j   |.7.6.4.3.1.< e.<    .: $ 2  ",
"         1.x C.g n.d.O v c l /   ^ f s p i W.3 t u   y.: 7.& 3  ",
"       S F S B M @.g.d.s.p z   k j g f s p.6.6  .8 E., &.- 6 `  ",
"    .x.b.v...g.l.+.h.f m   +.u.t.e.q.0 f.9.e s.5.3 r e w q 9.$  ",
"    .m K.c.j S S Z V M  .s v ,.u.t.e ; /.u f p.4 y E r e w.-.&  ",
"  .M 8 S V 4.v.c Z.g M.g M m v c l *   j ~.8.7.6.4.3.1.< e.,.:.<",
" L.=.l l K.m H.@   V V.j ).d.s.i   O > j g f s }.6.4 u [.X t.,.-",
".b G  .M L K B  .x S # V.g     (.a c o k j g.0 s.8 c. .4 t e.,.:",
"    .N I.n   F J.v D V     M.f.d.s.p.u.t k.e.r   g.7 - u t r e w",
"  .x.M F.b.m K.%.j  .p.z.l V B M m.a.u    .t j g.8.7 Q { u t r e",
"       m.v K     A F F.c #.k M B     v c.u >.e.q.0.8.7.6.4.3.1.<"
};
