P2
16 16
255
255 255 255 255 255 255 255 188 0 255 255 255 255 255 255 255
255 255 255 255 255 255 255 0 0 255 255 255 255 255 255 255
255 255 255 255 255 255 188 0 0 255 255 255 255 255 255 255
255 255 255 255 255 255 0 0 0 188 0 255 255 255 255 255
255 255 255 255 255 188 0 0 188 0 0 255 255 255 255 255
255 255 255 255 255 0 0 188 0 0 0 188 0 255 255 255
255 255 255 255 188 0 188 0 0 0 188 0 0 255 255 255
255 255 255 255 0 0 188 0 0 188 0 0 0 188 0 255
255 255 255 188 0 188 0 0 188 0 0 0 188 0 0 255
255 255 188 0 188 0 0 188 0 0 0 188 0 0 0 255
255 188 0 188 0 188 188 0 0 188 188 0 0 0 188 188
255 0 188 0 188 0 0 188 188 0 0 0 188 188 0 188
255 188 0 188 0 188 188 0 0 188 188 188 0 0 0 188
255 255 188 0 188 0 0 188 188 188 0 0 0 0 0 188
255 255 255 255 0 0 188 0 0 0 0 0 0 0 0 188
255 255 255 255 255 255 188 188 188 188 188 188 188 188 188 188
