P2
16 16
255
0 0 0 0 0 0 0 255 255 0 0 0 0 0 0 0
0 0 0 0 0 0 0 255 255 0 0 0 0 0 0 0
0 0 0 0 0 0 255 255 255 0 0 0 0 0 0 0
0 0 0 0 0 0 255 255 255 255 255 0 0 0 0 0
0 0 0 0 0 255 255 255 255 255 255 0 0 0 0 0
0 0 0 0 0 255 255 255 255 255 255 255 255 0 0 0
0 0 0 0 255 255 255 255 255 255 255 255 255 0 0 0
0 0 0 0 255 255 255 255 255 255 255 255 255 255 255 0
0 0 0 255 255 255 255 255 255 255 255 255 255 255 255 0
0 0 255 255 255 255 255 255 255 255 255 255 255 255 255 0
0 255 255 255 255 255 255 255 255 255 255 255 255 255 255 255
0 255 255 255 255 255 255 255 255 255 255 255 255 255 255 255
0 255 255 255 255 255 255 255 255 255 255 255 255 255 255 255
0 0 255 255 255 255 255 255 255 255 255 255 255 255 255 255
0 0 0 0 255 255 255 255 255 255 255 255 255 255 255 255
0 0 0 0 0 0 255 255 255 255 255 255 255 255 255 255
