#define pan_updown_width 25
#define pan_updown_height 5
static unsigned char pan_updown_bits[] = {
   0x40, 0xc0, 0x7f, 0x00, 0xe0, 0x80, 0x3f, 0x00, 0xf0, 0x01, 0x1f, 0x00,
   0xf8, 0x03, 0x0e, 0x00, 0xfc, 0x07, 0x04, 0x00};
