#define ptr_up_left_width 16
#define ptr_up_left_height 16
static unsigned char ptr_up_left_bits[] = {
   0x00, 0x00, 0x00, 0x00, 0xfc, 0x03, 0xfc, 0x01, 0x7c, 0x00, 0xfc, 0x00,
   0xfc, 0x00, 0xdc, 0x01, 0xcc, 0x03, 0x84, 0x07, 0x00, 0x1f, 0x00, 0x7c,
   0x00, 0x78, 0x00, 0x60, 0x00, 0x00, 0x00, 0x00};
