#define ptr_down_width 16
#define ptr_down_height 16
static unsigned char ptr_down_bits[] = {
   0x00, 0x00, 0xc0, 0x01, 0xc0, 0x01, 0xc0, 0x01, 0xc0, 0x01, 0xc0, 0x01,
   0xc0, 0x01, 0xc0, 0x01, 0xc0, 0x01, 0xc0, 0x01, 0xf8, 0x0f, 0xf0, 0x07,
   0xe0, 0x03, 0xc0, 0x01, 0x80, 0x00, 0x00, 0x00};
