#define ptr_down_right_width 16
#define ptr_down_right_height 16
static unsigned char ptr_down_right_bits[] = {
   0x00, 0x00, 0x1c, 0x00, 0x1c, 0x00, 0x38, 0x00, 0x38, 0x00, 0x70, 0x00,
   0xe0, 0x20, 0xe0, 0x31, 0xc0, 0x37, 0x80, 0x3f, 0x00, 0x3e, 0x00, 0x3f,
   0x80, 0x3f, 0xc0, 0x3f, 0x00, 0x00, 0x00, 0x00};
