#define qmark_width 8
#define qmark_height 14
static unsigned char qmark_bits[] = {
   0x3c, 0x7e, 0xc3, 0xc1, 0x60, 0x30, 0x18, 0x18, 0x18, 0x00, 0x00, 0x18,
   0x18, 0x00};
