#define zoom_in_width 16
#define zoom_in_height 16
#define zoom_in_x_hot 0
#define zoom_in_y_hot 0
static unsigned char zoom_in_bits[] = {
   0xf0, 0x01, 0x08, 0x02, 0x04, 0x04, 0x42, 0x08, 0x41, 0x10, 0x41, 0x10,
   0xf9, 0x13, 0x41, 0x10, 0x41, 0x10, 0x42, 0x08, 0x04, 0x0c, 0x08, 0x1a,
   0xf0, 0x31, 0x00, 0x60, 0x00, 0xc0, 0x00, 0x80};
