#define zoom_out_width 16
#define zoom_out_height 16
#define zoom_out_x_hot 0
#define zoom_out_y_hot 0
static unsigned char zoom_out_bits[] = {
   0xf0, 0x01, 0x08, 0x02, 0x04, 0x04, 0x02, 0x08, 0x01, 0x10, 0x01, 0x10,
   0xf9, 0x13, 0x01, 0x10, 0x01, 0x10, 0x02, 0x08, 0x04, 0x0c, 0x08, 0x1a,
   0xf0, 0x31, 0x00, 0x60, 0x00, 0xc0, 0x00, 0x80};
